<svg id="Layer_1" height="512" viewBox="0 0 512 512" width="512" xmlns="http://www.w3.org/2000/svg" data-name="Layer 1"><path d="m485.238 145.054a5.993 5.993 0 0 0 -4.374.081h-54.329l-29.151-42.449 29.151-42.45h55.865a6 6 0 0 0 6-6v-.468a6 6 0 0 0 -1.381-3.83 82.663 82.663 0 0 0 -144.314 70.981l-259.637 259.64c-1.461-.113-2.929-.187-4.41-.187a55.813 55.813 0 1 0 55.815 55.814c0-1.481-.074-2.949-.187-4.41l254.156-254.156a82.609 82.609 0 0 0 97.958-21.447 6 6 0 0 0 2.737-4.844l.014-.455a6 6 0 0 0 -3.913-5.82zm-375.598 322.113a43.812 43.812 0 1 1 12.834-30.981 43.528 43.528 0 0 1 -12.835 30.981zm21.716-49.431a56.022 56.022 0 0 0 -34.247-34.248l249.657-249.657a83.147 83.147 0 0 0 30.815 37.68zm291.987-244.364a70.686 70.686 0 1 1 45.085-125.136h-45.051a6 6 0 0 0 -4.946 2.6l-33.272 48.454a6 6 0 0 0 0 6.793l33.272 48.449a6 6 0 0 0 4.946 2.6h45.062a70.335 70.335 0 0 1 -45.096 16.24z"/><path d="m89.356 407.85a6 6 0 0 0 -5.794-1.553l-24.094 6.456a6 6 0 0 0 -4.243 4.247l-6.456 24.093a6 6 0 0 0 1.553 5.8l17.638 17.629a5.994 5.994 0 0 0 5.8 1.553l24.094-6.456a6 6 0 0 0 4.243-4.243l6.456-24.093a6 6 0 0 0 -1.554-5.8zm2.04 41.075-17.396 4.662-12.743-12.738 4.663-17.4 17.4-4.662 12.74 12.736z"/></svg>